HIERARCHY
ROOT Root
{
	OFFSET 0.00000 0.00000 0.00000
	CHANNELS 6 Xposition Yposition Zposition Zrotation Xrotation Yrotation
	JOINT Hips
	{
		OFFSET 0 0 0	
		CHANNELS 3 Zrotation Xrotation Yrotation
		JOINT Spine
		{
			OFFSET 0 4 0	
			CHANNELS 3 Zrotation Xrotation Yrotation
			JOINT Spine1
			{
				OFFSET 0 19.4 0	
				CHANNELS 3 Zrotation Xrotation Yrotation
				JOINT Spine2
				{
					OFFSET 0 16.6 0	
					CHANNELS 3 Zrotation Xrotation Yrotation
					JOINT LeftCollar
					{
						OFFSET 0 10 0	
						CHANNELS 3 Zrotation Xrotation Yrotation
						JOINT LeftArm
						{
							OFFSET 15.6 -2 3	
							CHANNELS 3 Zrotation Xrotation Yrotation
							JOINT LeftForeArm
							{
								OFFSET 3.5 -27 -1	
								CHANNELS 3 Zrotation Xrotation Yrotation
								JOINT LeftHand
								{
									OFFSET 1 -27 1	
									CHANNELS 3 Zrotation Xrotation Yrotation
									End Site
									{
										OFFSET 0 -15 0
									}
								}
							}
						}
					}
					JOINT RightCollar
					{
						OFFSET 0 10 0	
						CHANNELS 3 Zrotation Xrotation Yrotation
						JOINT RightArm
						{
							OFFSET -15.6 -2 3	
							CHANNELS 3 Zrotation Xrotation Yrotation
							JOINT RightForeArm
							{
								OFFSET -3.5 -27 -1	
								CHANNELS 3 Zrotation Xrotation Yrotation
								JOINT RightHand
								{
									OFFSET -1 -27 1	
									CHANNELS 3 Zrotation Xrotation Yrotation
									End Site
									{
										OFFSET 0 -15 0
									}
								}
							}
						}
					}
					JOINT Neck
					{
						OFFSET 0 10 0	
						CHANNELS 3 Zrotation Xrotation Yrotation
						JOINT Head
						{
							OFFSET 0 12.7 3	
							CHANNELS 3 Zrotation Xrotation Yrotation
							End Site
							{
								OFFSET 0 12.7 3
							}
						}
					}
				}
			}
		}
	}
	JOINT LeftHip
	{
		OFFSET 0 0 0	
		CHANNELS 3 Zrotation Xrotation Yrotation
		JOINT LeftUpLeg
		{
			OFFSET 8.8 -6 0	
			CHANNELS 3 Zrotation Xrotation Yrotation
			JOINT LeftLeg
			{
				OFFSET 0 -39 2	
				CHANNELS 3 Zrotation Xrotation Yrotation
				JOINT LeftFoot
				{
					OFFSET 0 -43 -2	
					CHANNELS 3 Zrotation Xrotation Yrotation
					JOINT LeftFootFront
					{
						OFFSET 0 -7 8.5	
						CHANNELS 3 Zrotation Xrotation Yrotation
						End Site
						{
							OFFSET 0 -0.5 9
						}
					}
				}
				JOINT LeftHeel
				{
					OFFSET 0 -43 -2	
					CHANNELS 3 Zrotation Xrotation Yrotation
					End Site
					{
						OFFSET 0 -7.5 -5
					}
				}
			}
		}
	}
	JOINT RightHip
	{
		OFFSET 0 0 0	
		CHANNELS 3 Zrotation Xrotation Yrotation
		JOINT RightUpLeg
		{
			OFFSET -8.8 -6 0	
			CHANNELS 3 Zrotation Xrotation Yrotation
			JOINT RightLeg
			{
				OFFSET 0 -39 2	
				CHANNELS 3 Zrotation Xrotation Yrotation
				JOINT RightFoot
				{
					OFFSET 0 -43 -2	
					CHANNELS 3 Zrotation Xrotation Yrotation
					JOINT RightFootFront
					{
						OFFSET 0 -7 8.5	
						CHANNELS 3 Zrotation Xrotation Yrotation
						End Site
						{
							OFFSET 0 -0.5 9
						}
					}
				}
				JOINT RightHeel
				{
					OFFSET 0 -43 -2	
					CHANNELS 3 Zrotation Xrotation Yrotation
					End Site
					{
						OFFSET 0 -7.5 -5
					}
				}
			}
		}
	}
}
MOTION
Frames: 25
Frame Time: 0.025
0 95.5 0 -0 0 -0 0.33076 -7.0027 -1.4376 1.4559 5.194 -1.4121 1.4559 5.194 -1.4121 1.2138 4.3654 -1.1767 -0 0 -0 -7.4963 -6.6054 -12.184 4.2604 -12.636 30.428 -0 0 -0 -0 0 -0 0.32003 -1.1668 -2.3422 0.41336 -15.693 9.9839 -0 0 -0 -0 0 -0 -0 0 -0 -0 0 -0 -0 0 -0 -0 0 -0 -0 0 -0 -0 0 -0 -0 0 -0 -0 0 -0 -0 0 -0 -0 0 -0 -0 0 -0 -0 0 -0 -0 0 -0 
0 95.5 0 -0 0 -0 0.45755 -6.3009 -1.0458 1.4822 4.8908 -1.3312 1.4822 4.8908 -1.3312 1.2369 4.1106 -1.1093 -0 0 -0 -8.0705 -7.1589 -12.47 4.2676 -11.658 30.675 -0 0 -0 -0 0 -0 0.51205 -1.0625 -2.1365 0.37817 -15.202 9.9745 -0 0 -0 -0 0 -0 -0 0 -0 -0 0 -0 -0 0 -0 -0 0 -0 -0 0 -0 -0 0 -0 -0 0 -0 -0 0 -0 -0 0 -0 -0 0 -0 -0 0 -0 -0 0 -0 -0 0 -0 
0 95.5 0 -0 0 -0 0.57799 -5.2042 -0.76363 1.5095 4.4589 -1.127 1.5095 4.4589 -1.127 1.2616 3.7475 -0.93845 -0 0 -0 -8.8513 -7.9841 -12.859 4.3483 -10.219 31.379 -0 0 -0 -0 0 -0 0.85289 -1.1369 -1.8227 0.15686 -14.277 9.4012 -0 0 -0 -0 0 -0 -0 0 -0 -0 0 -0 -0 0 -0 -0 0 -0 -0 0 -0 -0 0 -0 -0 0 -0 -0 0 -0 -0 0 -0 -0 0 -0 -0 0 -0 -0 0 -0 -0 0 -0 
0 95.5 0 -0 0 -0 0.60918 -3.9884 -0.74142 1.5578 4.0242 -0.85778 1.5578 4.0242 -0.85778 1.3041 3.3819 -0.71296 -0 0 -0 -9.7004 -8.9381 -13.132 4.6237 -8.5814 32.719 -0 0 -0 -0 0 -0 1.3293 -1.4475 -1.3804 -0.38917 -13.161 7.7055 -0 0 -0 -0 0 -0 -0 0 -0 -0 0 -0 -0 0 -0 -0 0 -0 -0 0 -0 -0 0 -0 -0 0 -0 -0 0 -0 -0 0 -0 -0 0 -0 -0 0 -0 -0 0 -0 -0 0 -0 
0 95.5 0 -0 0 -0 0.51369 -3.0196 -0.75324 1.6672 3.6691 -0.67058 1.6672 3.6691 -0.67058 1.3972 3.0834 -0.55597 -0 0 -0 -10.646 -9.8742 -13.067 5.1407 -6.8714 34.564 -0 0 -0 -0 0 -0 1.8045 -1.743 -0.80517 -1.1093 -12.148 4.9601 -0 0 -0 -0 0 -0 -0 0 -0 -0 0 -0 -0 0 -0 -0 0 -0 -0 0 -0 -0 0 -0 -0 0 -0 -0 0 -0 -0 0 -0 -0 0 -0 -0 0 -0 -0 0 -0 -0 0 -0 
0 95.5 0 -0 0 -0 0.312 -2.7659 -0.87272 1.8015 3.5566 -0.51039 1.8015 3.5566 -0.51039 1.5108 2.9887 -0.42111 -0 0 -0 -11.594 -10.662 -12.784 5.8038 -5.3381 36.676 -0 0 -0 -0 0 -0 2.1525 -2.0011 -0.34844 -1.8205 -11.218 2.6419 -0 0 -0 -0 0 -0 -0 0 -0 -0 0 -0 -0 0 -0 -0 0 -0 -0 0 -0 -0 0 -0 -0 0 -0 -0 0 -0 -0 0 -0 -0 0 -0 -0 0 -0 -0 0 -0 -0 0 -0 
0 95.5 0 -0 0 -0 0.1996 -2.8648 -1.1958 1.8229 3.534 -0.26564 1.8229 3.534 -0.26564 1.5298 2.9692 -0.21553 -0 0 -0 -12.304 -11.05 -12.599 6.3846 -4.2162 38.679 -0 0 -0 -0 0 -0 2.4367 -2.1698 -0.22665 -2.422 -10.384 2.3072 -0 0 -0 -0 0 -0 -0 0 -0 -0 0 -0 -0 0 -0 -0 0 -0 -0 0 -0 -0 0 -0 -0 0 -0 -0 0 -0 -0 0 -0 -0 0 -0 -0 0 -0 -0 0 -0 -0 0 -0 
0 95.5 0 -0 0 -0 0.32735 -2.7438 -1.5161 1.6604 3.3976 -0.0025874 1.6604 3.3976 -0.0025874 1.3945 2.854 0.0044524 -0 0 -0 -12.625 -11.023 -12.629 6.5896 -3.4954 39.917 -0 0 -0 -0 0 -0 2.7122 -2.2133 -0.2113 -2.7111 -9.6618 3.5982 -0 0 -0 -0 0 -0 -0 0 -0 -0 0 -0 -0 0 -0 -0 0 -0 -0 0 -0 -0 0 -0 -0 0 -0 -0 0 -0 -0 0 -0 -0 0 -0 -0 0 -0 -0 0 -0 -0 0 -0 
0 95.5 0 -0 0 -0 0.57548 -2.2328 -1.6832 1.4023 3.1487 0.18685 1.4023 3.1487 0.18685 1.1784 2.6446 0.16211 -0 0 -0 -12.608 -10.861 -12.82 6.3785 -3.0669 40.17 -0 0 -0 -0 0 -0 3.0059 -2.2112 0.013772 -2.6562 -9.1048 5.3635 -0 0 -0 -0 0 -0 -0 0 -0 -0 0 -0 -0 0 -0 -0 0 -0 -0 0 -0 -0 0 -0 -0 0 -0 -0 0 -0 -0 0 -0 -0 0 -0 -0 0 -0 -0 0 -0 -0 0 -0 
0 95.5 0 -0 0 -0 0.8431 -1.4881 -1.7005 1.1319 2.8727 0.2779 1.1319 2.8727 0.2779 0.95162 2.4127 0.23722 -0 0 -0 -12.344 -10.691 -13.02 6.0814 -3.0493 40.034 -0 0 -0 -0 0 -0 3.3549 -2.1632 0.44183 -2.5149 -8.9644 7.0739 -0 0 -0 -0 0 -0 -0 0 -0 -0 0 -0 -0 0 -0 -0 0 -0 -0 0 -0 -0 0 -0 -0 0 -0 -0 0 -0 -0 0 -0 -0 0 -0 -0 0 -0 -0 0 -0 -0 0 -0 
0 95.5 0 -0 0 -0 1.0389 -0.91603 -1.5221 0.93162 2.7177 0.24755 0.93162 2.7177 0.24755 0.78325 2.2826 0.21089 -0 0 -0 -11.895 -10.473 -13.054 6.0968 -3.4726 39.792 -0 0 -0 -0 0 -0 3.6163 -2.1282 0.87706 -2.3471 -9.2054 8.5611 -0 0 -0 -0 0 -0 -0 0 -0 -0 0 -0 -0 0 -0 -0 0 -0 -0 0 -0 -0 0 -0 -0 0 -0 -0 0 -0 -0 0 -0 -0 0 -0 -0 0 -0 -0 0 -0 -0 0 -0 
0 95.5 0 -0 0 -0 1.0135 -0.64472 -1.174 0.89981 2.6656 0.14109 0.89981 2.6656 0.14109 0.75619 2.239 0.12131 -0 0 -0 -11.362 -10.013 -12.844 6.1749 -4.0498 39.184 -0 0 -0 -0 0 -0 3.5711 -2.0958 1.0735 -2.0352 -9.3927 9.6578 -0 0 -0 -0 0 -0 -0 0 -0 -0 0 -0 -0 0 -0 -0 0 -0 -0 0 -0 -0 0 -0 -0 0 -0 -0 0 -0 -0 0 -0 -0 0 -0 -0 0 -0 -0 0 -0 -0 0 -0 
0 95.5 0 -0 0 -0 0.75313 -0.51607 -0.89419 1.0355 2.575 0.095566 1.0355 2.575 0.095566 0.86997 2.1629 0.083396 -0 0 -0 -10.88 -9.2234 -12.509 5.9589 -4.5776 37.972 -0 0 -0 -0 0 -0 3.2458 -1.9063 0.85432 -1.6492 -9.364 9.9274 -0 0 -0 -0 0 -0 -0 0 -0 -0 0 -0 -0 0 -0 -0 0 -0 -0 0 -0 -0 0 -0 -0 0 -0 -0 0 -0 -0 0 -0 -0 0 -0 -0 0 -0 -0 0 -0 -0 0 -0 
0 95.5 0 -0 0 -0 0.39426 -0.39964 -0.79196 1.2441 2.4145 0.13802 1.2441 2.4145 0.13802 1.0454 2.028 0.11945 -0 0 -0 -10.544 -8.3457 -12.218 5.5878 -4.8489 36.356 -0 0 -0 -0 0 -0 2.8456 -1.617 0.37786 -1.4415 -9.2188 9.3587 -0 0 -0 -0 0 -0 -0 0 -0 -0 0 -0 -0 0 -0 -0 0 -0 -0 0 -0 -0 0 -0 -0 0 -0 -0 0 -0 -0 0 -0 -0 0 -0 -0 0 -0 -0 0 -0 -0 0 -0 
0 95.5 0 -0 0 -0 0.064067 -0.23787 -0.73744 1.4355 2.2377 0.16317 1.4355 2.2377 0.16317 1.2062 1.8794 0.14082 -0 0 -0 -10.348 -7.6282 -12.05 5.3381 -4.8005 34.839 -0 0 -0 -0 0 -0 2.5072 -1.4421 -0.035122 -1.7257 -8.977 9.0698 -0 0 -0 -0 0 -0 -0 0 -0 -0 0 -0 -0 0 -0 -0 0 -0 -0 0 -0 -0 0 -0 -0 0 -0 -0 0 -0 -0 0 -0 -0 0 -0 -0 0 -0 -0 0 -0 -0 0 -0 
0 95.5 0 -0 0 -0 -0.17847 0.02894 -0.59948 1.5607 2.0458 0.091942 1.5607 2.0458 0.091942 1.3111 1.7183 0.080972 -0 0 -0 -10.185 -7.0688 -11.977 5.2535 -4.5798 33.806 -0 0 -0 -0 0 -0 2.2685 -1.3737 -0.22562 -2.1653 -8.4401 9.4645 -0 0 -0 -0 0 -0 -0 0 -0 -0 0 -0 -0 0 -0 -0 0 -0 -0 0 -0 -0 0 -0 -0 0 -0 -0 0 -0 -0 0 -0 -0 0 -0 -0 0 -0 -0 0 -0 -0 0 -0 
0 95.5 0 -0 0 -0 -0.29693 0.37676 -0.37104 1.5979 1.8435 -0.067069 1.5979 1.8435 -0.067069 1.342 1.5487 -0.052879 -0 0 -0 -9.9557 -6.6051 -11.883 5.227 -4.3457 33.246 -0 0 -0 -0 0 -0 2.1313 -1.273 -0.18946 -2.5178 -7.9438 10.05 -0 0 -0 -0 0 -0 -0 0 -0 -0 0 -0 -0 0 -0 -0 0 -0 -0 0 -0 -0 0 -0 -0 0 -0 -0 0 -0 -0 0 -0 -0 0 -0 -0 0 -0 -0 0 -0 -0 0 -0 
0 95.5 0 -0 0 -0 -0.29762 0.64755 -0.11897 1.5658 1.6779 -0.24892 1.5658 1.6779 -0.24892 1.3147 1.4099 -0.206 -0 0 -0 -9.6639 -6.1618 -11.687 5.1541 -4.2159 32.906 -0 0 -0 -0 0 -0 2.0818 -1.0835 -0.0086887 -2.7806 -7.604 10.54 -0 0 -0 -0 0 -0 -0 0 -0 -0 0 -0 -0 0 -0 -0 0 -0 -0 0 -0 -0 0 -0 -0 0 -0 -0 0 -0 -0 0 -0 -0 0 -0 -0 0 -0 -0 0 -0 -0 0 -0 
0 95.5 0 -0 0 -0 -0.27676 0.72695 0.082822 1.5329 1.5809 -0.38457 1.5329 1.5809 -0.38457 1.2869 1.3287 -0.32019 -0 0 -0 -9.3821 -5.685 -11.421 4.9725 -4.2216 32.618 -0 0 -0 -0 0 -0 2.0355 -0.81316 0.2003 -2.9502 -7.3861 10.765 -0 0 -0 -0 0 -0 -0 0 -0 -0 0 -0 -0 0 -0 -0 0 -0 -0 0 -0 -0 0 -0 -0 0 -0 -0 0 -0 -0 0 -0 -0 0 -0 -0 0 -0 -0 0 -0 -0 0 -0 
0 95.5 0 -0 0 -0 -0.32865 0.69044 0.17378 1.5376 1.5258 -0.42289 1.5376 1.5258 -0.42289 1.2908 1.2825 -0.35246 -0 0 -0 -9.1269 -5.1703 -11.194 4.7128 -4.319 32.38 -0 0 -0 -0 0 -0 1.9344 -0.50268 0.31929 -2.9803 -7.2545 10.6 -0 0 -0 -0 0 -0 -0 0 -0 -0 0 -0 -0 0 -0 -0 0 -0 -0 0 -0 -0 0 -0 -0 0 -0 -0 0 -0 -0 0 -0 -0 0 -0 -0 0 -0 -0 0 -0 -0 0 -0 
0 95.5 0 -0 0 -0 -0.44978 0.68928 0.13405 1.551 1.4788 -0.35792 1.551 1.4788 -0.35792 1.3022 1.2429 -0.29795 -0 0 -0 -8.873 -4.6871 -11.112 4.497 -4.4636 32.274 -0 0 -0 -0 0 -0 1.825 -0.27729 0.33228 -2.8939 -7.0703 10.19 -0 0 -0 -0 0 -0 -0 0 -0 -0 0 -0 -0 0 -0 -0 0 -0 -0 0 -0 -0 0 -0 -0 0 -0 -0 0 -0 -0 0 -0 -0 0 -0 -0 0 -0 -0 0 -0 -0 0 -0 
0 95.5 0 -0 0 -0 -0.57575 0.76211 -0.03409 1.5318 1.4428 -0.22264 1.5318 1.4428 -0.22264 1.2863 1.2124 -0.18442 -0 0 -0 -8.6073 -4.3394 -11.192 4.4285 -4.5959 32.356 -0 0 -0 -0 0 -0 1.7646 -0.2084 0.33525 -2.771 -6.8129 9.7846 -0 0 -0 -0 0 -0 -0 0 -0 -0 0 -0 -0 0 -0 -0 0 -0 -0 0 -0 -0 0 -0 -0 0 -0 -0 0 -0 -0 0 -0 -0 0 -0 -0 0 -0 -0 0 -0 -0 0 -0 
0 95.5 0 -0 0 -0 -0.70796 0.82216 -0.23844 1.5043 1.4381 -0.082972 1.5043 1.4381 -0.082971 1.2634 1.2081 -0.067156 -0 0 -0 -8.3598 -4.1456 -11.34 4.5006 -4.6852 32.559 -0 0 -0 -0 0 -0 1.6893 -0.23275 0.4036 -2.6602 -6.5676 9.5399 -0 0 -0 -0 0 -0 -0 0 -0 -0 0 -0 -0 0 -0 -0 0 -0 -0 0 -0 -0 0 -0 -0 0 -0 -0 0 -0 -0 0 -0 -0 0 -0 -0 0 -0 -0 0 -0 -0 0 -0 
0 95.5 0 -0 0 -0 -0.85772 0.88197 -0.30695 1.519 1.4159 -0.01979 1.519 1.4159 -0.01979 1.2759 1.1894 -0.0141 -0 0 -0 -8.1777 -3.9547 -11.361 4.6143 -4.7978 32.74 -0 0 -0 -0 0 -0 1.4667 -0.22357 0.55014 -2.5628 -6.3511 9.5341 -0 0 -0 -0 0 -0 -0 0 -0 -0 0 -0 -0 0 -0 -0 0 -0 -0 0 -0 -0 0 -0 -0 0 -0 -0 0 -0 -0 0 -0 -0 0 -0 -0 0 -0 -0 0 -0 -0 0 -0 
0 95.5 0 -0 0 -0 -0.99309 0.97555 -0.17754 1.5843 1.3504 -0.055124 1.5843 1.3504 -0.055124 1.3307 1.1345 -0.043794 -0 0 -0 -8.0483 -3.6607 -11.099 4.6615 -5.0294 32.777 -0 0 -0 -0 0 -0 1.0796 -0.17447 0.7379 -2.51 -6.1276 9.674 -0 0 -0 -0 0 -0 -0 0 -0 -0 0 -0 -0 0 -0 -0 0 -0 -0 0 -0 -0 0 -0 -0 0 -0 -0 0 -0 -0 0 -0 -0 0 -0 -0 0 -0 -0 0 -0 -0 0 -0 
